<svg width="22" height="27" viewBox="0 0 22 27" fill="none" xmlns="http://www.w3.org/2000/svg">
<path fill-rule="evenodd" clip-rule="evenodd" d="M16.3669 0C16.4871 1.56752 15.9906 3.1201 14.9829 4.32802C14.0052 5.5422 12.5238 6.24157 10.9635 6.22553C10.8643 4.70314 11.3752 3.2038 12.3838 2.05775C13.4051 0.896174 14.8273 0.16146 16.3669 0ZM21.3013 9.2104C19.5065 10.3121 18.4021 12.2551 18.375 14.3585C18.3775 16.7383 19.8049 18.886 22 19.8131C21.5778 21.1824 20.9415 22.4766 20.1145 23.6475C19.0038 25.3063 17.8394 26.927 15.9911 26.9569C15.1121 26.9772 14.5188 26.7248 13.9005 26.4618C13.2556 26.1875 12.5835 25.9017 11.5319 25.9017C10.4166 25.9017 9.71449 26.1967 9.03731 26.4813C8.45212 26.7272 7.88556 26.9653 7.0871 26.9983C5.32694 27.0634 3.98175 25.2278 2.83074 23.5845C0.530217 20.2286 -1.26116 14.127 1.14044 9.97527C2.26819 7.95179 4.37681 6.66777 6.69481 6.59299C7.69309 6.57248 8.65102 6.95667 9.49086 7.2935C10.1331 7.55109 10.7064 7.78099 11.1758 7.78099C11.5884 7.78099 12.1456 7.56017 12.795 7.30282C13.8179 6.89744 15.0696 6.40142 16.3451 6.5351C18.3272 6.59702 20.1639 7.58848 21.3013 9.2104Z" fill="white"/>
</svg>
